<svg width="114" height="32" viewBox="0 0 114 32" fill="none" xmlns="http://www.w3.org/2000/svg">
<mask id="mask0_12459_6059" style="mask-type:luminance" maskUnits="userSpaceOnUse" x="0" y="0" width="113" height="32">
<path d="M112.924 0H0.368774V32H112.924V0Z" fill="white"/>
</mask>
<g mask="url(#mask0_12459_6059)">
<path d="M13.705 22.0829C14.846 22.0829 15.8919 21.9043 16.8428 21.5475L11.7795 15.9113H17.2707L20.3016 19.3002C21.0623 18.4916 21.6447 17.564 22.0487 16.5177C22.4768 15.4475 22.6907 14.3059 22.6907 13.0931C22.6907 11.4283 22.2985 9.9062 21.514 8.52689C20.7295 7.14756 19.6479 6.06538 18.269 5.28067C16.8904 4.49587 15.3691 4.10333 13.705 4.10333C12.0409 4.10333 10.5195 4.49587 9.14081 5.28067C7.78579 6.06538 6.70421 7.14756 5.89592 8.52689C5.11145 9.9062 4.71928 11.4283 4.71928 13.0931C4.71928 14.7578 5.11145 16.2799 5.89592 17.6592C6.70417 19.0385 7.78579 20.1207 9.14081 20.9055C10.5195 21.6903 12.041 22.0829 13.705 22.0829ZM21.5853 26.863L19.7311 24.7939C17.8293 25.7212 15.8206 26.185 13.705 26.185C11.2803 26.185 9.04577 25.6026 7.00132 24.437C4.95701 23.2717 3.34048 21.6903 2.15193 19.6926C0.963296 17.6949 0.369019 15.4951 0.369019 13.0931C0.369019 10.691 0.963307 8.49127 2.15193 6.49351C3.34048 4.49587 4.95701 2.91431 7.00132 1.74901C9.04577 0.583694 11.2803 0.000976562 13.705 0.000976562C16.1297 0.000976562 18.3642 0.583694 20.4086 1.74901C22.4529 2.91431 24.0693 4.49587 25.258 6.49351C26.4465 8.49127 27.0409 10.691 27.0409 13.0931C27.0409 14.9006 26.6962 16.6129 26.0069 18.23C25.3173 19.8233 24.3429 21.2147 23.0829 22.4037L27.0765 26.863H21.5853Z" fill="#0A0A0A"/>
<path d="M37.9856 22.2261C38.9602 22.2261 39.8518 21.9882 40.66 21.5126C41.4682 21.0369 42.1102 20.3947 42.5856 19.5863C43.0611 18.7539 43.2987 17.8382 43.2987 16.8394C43.2987 15.8406 43.0611 14.9368 42.5856 14.1283C42.1102 13.2958 41.4682 12.6419 40.66 12.1661C39.8518 11.6906 38.9602 11.4527 37.9856 11.4527C37.0109 11.4527 36.1198 11.6906 35.3113 12.1661C34.5031 12.6419 33.8613 13.2958 33.3858 14.1283C32.9104 14.9368 32.6727 15.8406 32.6727 16.8394C32.6727 17.8382 32.9104 18.7539 33.3858 19.5863C33.8613 20.3947 34.5031 21.0369 35.3113 21.5126C36.1198 21.9882 37.0109 22.2261 37.9856 22.2261ZM47.1853 8.1357V25.5799H43.2987V23.8319C42.5142 24.5693 41.6347 25.1399 40.66 25.5444C39.7091 25.9246 38.6989 26.115 37.6291 26.115C35.9889 26.115 34.4676 25.6988 33.0651 24.8664C31.6624 24.0339 30.5451 22.9161 29.7131 21.5131C28.9049 20.0862 28.5007 18.5285 28.5007 16.84C28.5007 15.1752 28.9049 13.6411 29.7131 12.2381C30.5451 10.8112 31.6624 9.68147 33.0651 8.84914C34.4676 8.01667 35.9889 7.60059 37.6291 7.60059C38.6989 7.60059 39.7091 7.80267 40.66 8.20699C41.6347 8.5875 42.5142 9.14639 43.2987 9.8837V8.13565L47.1853 8.1357Z" fill="#0A0A0A"/>
<path d="M59.1891 22.2255C60.1637 22.2255 61.0553 21.9877 61.8635 21.5121C62.6717 21.0364 63.3135 20.3942 63.7891 19.5857C64.2644 18.7534 64.5022 17.8377 64.5022 16.8389C64.5022 15.8401 64.2644 14.9363 63.7891 14.1278C63.3135 13.2953 62.6717 12.6414 61.8635 12.1656C61.0553 11.6901 60.1637 11.4521 59.1891 11.4521C58.2146 11.4521 57.3231 11.6901 56.5149 12.1656C55.7064 12.6414 55.0649 13.2953 54.5893 14.1278C54.114 14.9363 53.8762 15.8401 53.8762 16.8389C53.8762 17.8377 54.114 18.7534 54.5893 19.5857C55.0649 20.3942 55.7064 21.0364 56.5149 21.5121C57.3231 21.9877 58.2146 22.2255 59.1891 22.2255ZM59.5457 7.59985C61.186 7.59985 62.7073 8.01596 64.1097 8.84841C65.5124 9.68074 66.618 10.8105 67.4262 12.2374C68.2582 13.6404 68.6742 15.1745 68.6742 16.8392C68.6742 18.5277 68.2582 20.0854 67.4262 21.5124C66.618 22.9155 65.5124 24.0332 64.1097 24.8657C62.7073 25.6981 61.186 26.1141 59.5457 26.1141C58.5473 26.1141 57.5846 25.9359 56.6575 25.5792C55.7304 25.2223 54.8984 24.723 54.1613 24.0808V32.0003H49.9897V8.1347H53.8762V9.88272C54.6606 9.14541 55.5284 8.58652 56.4791 8.20603C57.4537 7.8017 58.476 7.59961 59.5457 7.59961" fill="#0A0A0A"/>
<path d="M73.1978 5.13784C72.4847 5.13784 71.8664 4.90002 71.3436 4.42435C70.8444 3.92502 70.5947 3.31859 70.5947 2.60511C70.5947 1.89163 70.8444 1.29701 71.3436 0.821354C71.8664 0.322003 72.4847 0.0722656 73.1978 0.0722656C73.9109 0.0722656 74.5171 0.322003 75.0162 0.821354C75.5393 1.29701 75.8007 1.89163 75.8007 2.60511C75.8007 3.31859 75.5393 3.92502 75.0162 4.42435C74.5171 4.90002 73.9109 5.13784 73.1978 5.13784ZM71.094 8.13442H75.266V25.5785H71.094V8.13442Z" fill="#0A0A0A"/>
<path d="M82.238 11.8802V19.5143C82.238 20.2516 82.428 20.8103 82.8082 21.1908C83.2125 21.5714 83.7829 21.7616 84.5198 21.7616H86.4453V25.5785H84.4129C83.1531 25.5785 82.0476 25.329 81.0967 24.8296C80.1458 24.3063 79.4089 23.6048 78.886 22.7248C78.3631 21.8212 78.1016 20.8103 78.1016 19.6925V0.643555H82.238V8.13491H86.4453V11.8807H82.238" fill="#0A0A0A"/>
<path d="M96.742 22.2261C97.7167 22.2261 98.6082 21.9882 99.4165 21.5126C100.225 21.0369 100.866 20.3947 101.342 19.5863C101.817 18.7539 102.055 17.8382 102.055 16.8394C102.055 15.8406 101.817 14.9368 101.342 14.1283C100.866 13.2958 100.225 12.6419 99.4165 12.1661C98.6082 11.6906 97.7167 11.4527 96.742 11.4527C95.7676 11.4527 94.876 11.6906 94.0678 12.1661C93.2596 12.6419 92.6176 13.2958 92.1423 14.1283C91.6669 14.9368 91.4291 15.8406 91.4291 16.8394C91.4291 17.8382 91.6669 18.7539 92.1423 19.5863C92.6176 20.3947 93.2596 21.0369 94.0678 21.5126C94.876 21.9882 95.7676 22.2261 96.742 22.2261ZM105.942 8.1357V25.5799H102.055V23.8319C101.271 24.5693 100.391 25.1399 99.4165 25.5444C98.4656 25.9246 97.4554 26.115 96.3854 26.115C94.7451 26.115 93.224 25.6988 91.8214 24.8664C90.4189 24.0339 89.3016 22.9161 88.4696 21.5131C87.6614 20.0862 87.2571 18.5285 87.2571 16.84C87.2571 15.1752 87.6614 13.6411 88.4696 12.2381C89.3016 10.8112 90.4189 9.68147 91.8214 8.84914C93.224 8.01667 94.7451 7.60059 96.3854 7.60059C97.4554 7.60059 98.4656 7.80267 99.4165 8.20699C100.391 8.5875 101.271 9.14639 102.055 9.8837V8.13565L105.942 8.1357Z" fill="#0A0A0A"/>
<path d="M108.744 0.641602H112.916V25.579H108.744V0.641602Z" fill="#0A0A0A"/>
</g>
</svg>
